<svg width="90" height="90" viewBox="0 0 90 90" fill="none" xmlns="http://www.w3.org/2000/svg">
<g clip-path="url(#clip0_117_2114)">
<path d="M5.9165 2C4.34762 2.00097 2.84328 2.62463 1.73391 3.734C0.624545 4.84337 0.000966359 6.34771 0 7.91659V71.3614H4.50853V38.7654H7.32091V71.3614H11.8332V7.92389C11.8322 6.35438 11.208 4.84949 10.0978 3.74001C8.98768 2.63054 7.48245 2.0073 5.91294 2.0073M7.32091 34.928H4.50853V7.42416C4.49882 7.23347 4.52792 7.04279 4.5942 6.86373C4.66048 6.68467 4.76261 6.52097 4.89414 6.38256C5.02567 6.24416 5.18391 6.13393 5.35937 6.05862C5.53483 5.98332 5.72378 5.9445 5.91472 5.9445C6.10566 5.9445 6.29461 5.98332 6.47007 6.05862C6.64553 6.13393 6.80376 6.24416 6.9353 6.38256C7.06683 6.52097 7.16896 6.68467 7.23524 6.86373C7.30152 7.04279 7.33062 7.23347 7.32091 7.42416V34.928Z" fill="#fff"/>
<path d="M55.5071 2.02923C54.6846 1.94821 53.8543 2.04041 53.0697 2.29987C52.285 2.55932 51.5634 2.9803 50.9514 3.53565C50.3393 4.09099 49.8504 4.76839 49.5162 5.52422C49.1819 6.28004 49.0096 7.09751 49.0105 7.92395V65.4521C49.0488 66.9963 49.6893 68.4644 50.795 69.5431C51.9007 70.6217 53.3843 71.2254 54.929 71.2254C56.4737 71.2254 57.9572 70.6217 59.0629 69.5431C60.1687 68.4644 60.8091 66.9963 60.8474 65.4521V8.09174C60.8474 5.01306 58.5675 2.3174 55.4998 2.02923M54.9307 67.5788C54.746 67.5793 54.5629 67.5432 54.3921 67.4729C54.2213 67.4025 54.0661 67.2992 53.9353 67.1687C53.8045 67.0383 53.7008 66.8833 53.63 66.7127C53.5592 66.542 53.5228 66.3591 53.5228 66.1744V7.41327C53.5224 7.20478 53.5683 6.99881 53.6574 6.81031C53.7465 6.62182 53.8765 6.45551 54.0379 6.32349C54.1992 6.19147 54.388 6.09706 54.5904 6.04706C54.7928 5.99706 55.0038 5.99272 55.2081 6.03442C55.5328 6.10608 55.8226 6.28816 56.0281 6.54956C56.2336 6.81096 56.3421 7.13554 56.3352 7.46799V66.1744C56.3352 66.5468 56.1871 66.9041 55.9237 67.1674C55.6603 67.4308 55.3032 67.5788 54.9307 67.5788" fill="#fff"/>
<path d="M85.4881 2.36485V65.9482C85.4884 66.1568 85.4423 66.3629 85.3533 66.5515C85.2642 66.7401 85.1344 66.9066 84.9732 67.0388C84.8119 67.1711 84.6232 67.266 84.4209 67.3164C84.2185 67.3669 84.0073 67.3718 83.8028 67.3307C83.48 67.2553 83.1926 67.0723 82.9878 66.8118C82.7829 66.5512 82.6728 66.2286 82.6757 65.8972V60.8597V8.09175C82.6757 5.01308 80.3922 2.31741 77.3281 2.02924C76.5068 1.94937 75.678 2.0422 74.8948 2.30171C74.1115 2.56122 73.391 2.98171 72.7799 3.53615C72.1687 4.0906 71.6804 4.76671 71.3461 5.52112C71.0118 6.27552 70.839 7.09151 70.8388 7.91667V71.3615H75.3511V7.41328C75.3507 7.20479 75.3966 6.99883 75.4857 6.81033C75.5748 6.62183 75.7048 6.45553 75.8662 6.32351C76.0275 6.19148 76.2163 6.09708 76.4187 6.04708C76.6211 5.99708 76.8321 5.99273 77.0364 6.03443C77.3585 6.10969 77.6455 6.29221 77.8503 6.55202C78.0551 6.81184 78.1655 7.13353 78.1635 7.46435V9.84998V65.2698C78.1635 68.3521 80.447 71.0477 83.5111 71.3359C84.3325 71.4152 85.1615 71.322 85.9448 71.062C86.7281 70.8021 87.4483 70.3812 88.0593 69.8265C88.6704 69.2718 89.1589 68.5954 89.4931 67.8408C89.8274 67.0863 90.0001 66.2701 90.0004 65.4448V2.36485H85.4881Z" fill="#fff"/>
<path d="M29.8786 38.6304C30.1284 38.5035 30.3969 38.4173 30.6738 38.375C31.1918 38.2802 31.7244 38.2875 32.2387 38.1781C32.7023 38.0835 33.148 37.916 33.5592 37.682C34.3606 37.2029 35.0134 36.5109 35.4451 35.683C35.8658 34.8965 36.1447 34.0421 36.2694 33.1588C36.2694 33.0822 36.346 31.8931 36.346 31.78V2H24.5092V31.78H29.0215V6.52683H31.8374V31.78C31.8893 32.3177 31.8586 32.8602 31.7462 33.3886C31.5675 34.1182 30.9985 34.3881 30.2871 34.483C29.875 34.5377 29.4592 34.5377 29.047 34.5924C27.307 34.8368 25.9829 36.1317 25.268 37.6783C24.9058 38.4812 24.6696 39.335 24.5676 40.2099C24.5214 40.6655 24.5005 41.1234 24.5055 41.5814V71.3614H36.3424V41.5814H31.8339V66.8346H29.0177V41.5814C28.9667 40.6075 28.8682 39.163 29.875 38.6304" fill="#fff"/>
<path d="M7.78778 88.4802V81.4182H9.49489V84.4021H9.58973L11.9243 81.4182H13.9342L11.4282 84.5698L13.978 88.4802H11.9352L10.177 85.7043L9.49489 86.5652V88.4802H7.78778Z" fill="#fff"/>
<path d="M19.2274 81.4182H17.5202V88.4802H19.2274V81.4182Z" fill="#fff"/>
<path d="M22.9773 82.8044V81.4182H28.9486V82.8044H26.8074V88.4802H25.1222V82.8044H22.9773Z" fill="#fff"/>
<path d="M39.0418 84.9493C39.0633 85.6346 38.9089 86.314 38.5932 86.9227C38.3155 87.4409 37.8953 87.8687 37.3822 88.1556C36.8531 88.4324 36.2648 88.5769 35.6677 88.5769C35.0706 88.5769 34.4825 88.4324 33.9534 88.1556C33.4421 87.8675 33.0233 87.4399 32.7459 86.9227C32.4531 86.306 32.301 85.632 32.301 84.9493C32.301 84.2666 32.4531 83.5925 32.7459 82.9759C33.0223 82.458 33.4413 82.0301 33.9534 81.7429C34.4828 81.4674 35.0708 81.3235 35.6677 81.3235C36.2646 81.3235 36.8527 81.4674 37.3822 81.7429C37.8953 82.0299 38.3155 82.4577 38.5932 82.9759C38.9087 83.5859 39.0632 84.2665 39.0418 84.9529M37.2983 84.9529C37.3092 84.5547 37.2423 84.1582 37.1013 83.7857C36.992 83.4923 36.7976 83.2383 36.5431 83.0561C36.3509 82.9231 36.1309 82.8359 35.8998 82.8011C35.6687 82.7663 35.4328 82.7847 35.2099 82.8552C34.9871 82.9256 34.7833 83.046 34.6142 83.2073C34.445 83.3686 34.3151 83.5664 34.2342 83.7857C33.9766 84.5413 33.9766 85.3609 34.2342 86.1166C34.3238 86.3287 34.4583 86.5188 34.6286 86.6739C34.7988 86.8289 35.0007 86.9451 35.2203 87.0145C35.4398 87.0839 35.6717 87.1048 35.9001 87.0757C36.1285 87.0466 36.3479 86.9683 36.5431 86.8461C36.7976 86.6639 36.992 86.4099 37.1013 86.1166C37.2423 85.7453 37.3092 85.35 37.2983 84.9529Z" fill="#fff"/>
<path d="M42.9484 88.4802V81.4146H45.8922C46.3465 81.4018 46.7989 81.4787 47.2236 81.6407C47.5487 81.7651 47.8293 81.9836 48.0297 82.2682C48.2113 82.5453 48.3052 82.8707 48.2995 83.202C48.307 83.4555 48.2492 83.7067 48.1318 83.9315C48.0208 84.1407 47.8606 84.3197 47.6649 84.4532C47.4586 84.5961 47.2253 84.6954 46.9792 84.7449V84.8143C47.2576 84.8268 47.5289 84.9056 47.7707 85.0441C48.013 85.1841 48.2143 85.3854 48.3544 85.6277C48.5079 85.8974 48.5848 86.2039 48.5769 86.5141C48.5816 86.8735 48.48 87.2263 48.2849 87.5282C48.0793 87.8377 47.7897 88.082 47.4498 88.2322C47.0302 88.4148 46.5756 88.5032 46.1182 88.4912L42.9484 88.4802ZM44.6556 84.3182H45.6003C45.7701 84.3217 45.9388 84.2907 46.0963 84.227C46.2331 84.1717 46.351 84.0779 46.4356 83.957C46.5196 83.8321 46.5629 83.6844 46.5596 83.5339C46.5643 83.4277 46.544 83.3218 46.5003 83.2248C46.4565 83.1279 46.3907 83.0426 46.3079 82.9758C46.111 82.8309 45.8701 82.7587 45.6259 82.7715H44.6556V84.3182ZM44.6556 87.1014H45.728C46.0169 87.1238 46.3053 87.0507 46.5487 86.8935C46.6345 86.8221 46.7027 86.7321 46.7482 86.6303C46.7937 86.5285 46.8154 86.4176 46.8114 86.3062C46.8153 86.1403 46.7709 85.9768 46.6837 85.8356C46.5946 85.7001 46.4678 85.5936 46.3189 85.5292C46.1418 85.4524 45.9501 85.4151 45.7572 85.4198H44.6629L44.6556 87.1014Z" fill="#fff"/>
<path d="M52.3088 88.4802V81.4182H54.0159V87.0941H56.956V88.4802H52.3088Z" fill="#fff"/>
<path d="M62.3685 88.4801H60.5447L62.9266 81.4144H65.2028L67.5847 88.4801H65.7608L64.1012 83.1945H64.0465L62.3685 88.4801ZM62.1242 85.7005H65.9616V86.9955H62.1423L62.1242 85.7005Z" fill="#fff"/>
<path d="M71.2616 88.4802V81.4146H74.1798C74.6528 81.4024 75.1221 81.4998 75.5512 81.6991C75.9233 81.8772 76.2344 82.1615 76.445 82.5162C76.6611 82.8971 76.7695 83.3296 76.7586 83.7674C76.771 84.2051 76.6598 84.6375 76.4377 85.0149C76.2189 85.3607 75.9012 85.6327 75.5258 85.7955C75.0845 85.9833 74.608 86.0741 74.1287 86.0618H72.2829V84.7158H73.815C74.0347 84.7229 74.2538 84.6883 74.4607 84.6137C74.6233 84.5562 74.7628 84.4473 74.8582 84.3036C74.9533 84.1413 75.0001 83.9553 74.9932 83.7674C74.999 83.5773 74.9522 83.3892 74.8582 83.2239C74.7627 83.077 74.6237 82.9635 74.4607 82.8992C74.254 82.8239 74.0349 82.788 73.815 82.7934H72.9724V88.4802H71.2616ZM75.2376 85.252L76.9959 88.4802H75.1318L73.4064 85.252H75.2376Z" fill="#fff"/>
<path d="M82.2962 81.4182H80.5891V88.4802H82.2962V81.4182Z" fill="#fff"/>
</g>
<defs>
<clipPath id="clip0_117_2114">
<rect width="90" height="90" fill="white"/>
</clipPath>
</defs>
</svg>
