<svg width="24" height="24" viewBox="0 0 24 24" fill="none" xmlns="http://www.w3.org/2000/svg">
<path fill-rule="evenodd" clip-rule="evenodd" d="M19.75 12C19.75 11.5858 19.4142 11.25 19 11.25H5C4.58579 11.25 4.25 11.5858 4.25 12C4.25 12.4142 4.58579 12.75 5 12.75H19C19.4142 12.75 19.75 12.4142 19.75 12Z" fill="black"/>
<path fill-rule="evenodd" clip-rule="evenodd" d="M4.46967 11.4697C4.17678 11.7626 4.17678 12.2374 4.46967 12.5303L10.4697 18.5303C10.7626 18.8232 11.2374 18.8232 11.5303 18.5303C11.8232 18.2374 11.8232 17.7626 11.5303 17.4697L5.53033 11.4697C5.23744 11.1768 4.76256 11.1768 4.46967 11.4697Z" fill="black"/>
<path fill-rule="evenodd" clip-rule="evenodd" d="M11.5303 5.46967C11.2374 5.17678 10.7626 5.17678 10.4697 5.46967L4.46967 11.4697C4.17678 11.7626 4.17678 12.2374 4.46967 12.5303C4.76256 12.8232 5.23744 12.8232 5.53033 12.5303L11.5303 6.53033C11.8232 6.23744 11.8232 5.76256 11.5303 5.46967Z" fill="black"/>
</svg>
