<?xml version="1.0" encoding="utf-8"?>
<!-- Generator: Adobe Illustrator 27.0.1, SVG Export Plug-In . SVG Version: 6.00 Build 0)  -->
<svg version="1.1" id="Layer_1" xmlns="http://www.w3.org/2000/svg" xmlns:xlink="http://www.w3.org/1999/xlink" x="0px" y="0px"
	 viewBox="0 0 24 24" style="enable-background:new 0 0 24 24;" xml:space="preserve">
<style type="text/css">
	.st0{fill-rule:evenodd;clip-rule:evenodd;}
</style>
<path class="st0" d="M21,7.2h-3c-1.8,0-3.5,0.7-4.8,2c-0.2,0.2-0.3,0.4-0.5,0.5c-0.1-1.7-0.8-3.3-2-4.5c-1.3-1.3-3-2-4.8-2H3
	C2.6,3.2,2.2,3.6,2.2,4v2c0,1.8,0.7,3.5,2,4.8c1.3,1.3,3,2,4.8,2h2.2V20c0,0.4,0.3,0.8,0.8,0.8s0.8-0.3,0.8-0.8v-4.2H15
	c1.8,0,3.5-0.7,4.8-2c1.3-1.3,2-3,2-4.8V8C21.8,7.6,21.4,7.2,21,7.2z M9,11.2c-1.4,0-2.7-0.6-3.7-1.5c-1-1-1.5-2.3-1.5-3.7V4.8H6
	c1.4,0,2.7,0.6,3.7,1.5c1,1,1.5,2.3,1.5,3.7v1.2H9z M20.2,9c0,1.4-0.6,2.7-1.5,3.7c-1,1-2.3,1.5-3.7,1.5h-2.2V14
	c0-1.4,0.6-2.7,1.5-3.7c1-1,2.3-1.5,3.7-1.5h2.2V9z"/>
</svg>
