<svg width="20" height="21" viewBox="0 0 20 21" fill="none" xmlns="http://www.w3.org/2000/svg">
<path fill-rule="evenodd" clip-rule="evenodd" d="M10 3.75C6.27208 3.75 3.25 6.77208 3.25 10.5C3.25 14.2279 6.27208 17.25 10 17.25C13.7279 17.25 16.75 14.2279 16.75 10.5C16.75 6.77208 13.7279 3.75 10 3.75ZM1.75 10.5C1.75 5.94365 5.44365 2.25 10 2.25C14.5563 2.25 18.25 5.94365 18.25 10.5C18.25 15.0563 14.5563 18.75 10 18.75C5.44365 18.75 1.75 15.0563 1.75 10.5Z" fill="black"/>
<path fill-rule="evenodd" clip-rule="evenodd" d="M10 5.58331C10.4142 5.58331 10.75 5.9191 10.75 6.33331V10.1893L13.0303 12.4696C13.3232 12.7625 13.3232 13.2374 13.0303 13.5303C12.7374 13.8232 12.2626 13.8232 11.9697 13.5303L9.46967 11.0303C9.32902 10.8897 9.25 10.6989 9.25 10.5V6.33331C9.25 5.9191 9.58579 5.58331 10 5.58331Z" fill="black"/>
</svg>
