<svg width="24" height="24" viewBox="0 0 24 24" fill="none" xmlns="http://www.w3.org/2000/svg">
<path fill-rule="evenodd" clip-rule="evenodd" d="M12.3834 4.98643C10.4152 4.90663 8.49426 5.4663 6.97817 6.54188C5.4642 7.61597 4.46796 9.12131 4.13612 10.7607C3.80491 12.397 4.14979 14.0928 5.12819 15.5399C5.30233 15.7974 5.34678 16.1213 5.24847 16.4162L4.50115 18.6582L7.49168 18.0219C7.70937 17.9756 7.9363 18.0032 8.13652 18.1004C9.85067 18.9326 11.8574 19.1868 13.7772 18.8064C15.6969 18.4261 17.3706 17.4437 18.502 16.0711C19.6304 14.7021 20.1466 13.0366 19.9846 11.3825C19.8224 9.72675 18.9872 8.15395 17.5961 6.96741C16.2024 5.77866 14.3514 5.06623 12.3834 4.98643ZM2.94374 20.9987C3.03913 21.0041 3.13357 20.9956 3.22446 20.9746L7.58138 20.0476C9.62113 20.9545 11.9445 21.2084 14.1659 20.7683C16.504 20.3051 18.5986 19.0984 20.0453 17.3432C21.4951 15.5843 22.1914 13.3963 21.9751 11.1875C21.7589 8.98036 20.6504 6.94384 18.894 5.44574C17.1402 3.94983 14.854 3.08496 12.4644 2.98807C10.0748 2.89119 7.71425 3.56748 5.82093 4.91069C3.92549 6.2554 2.6165 8.1871 2.17588 10.3639C1.76755 12.3812 2.13791 14.4499 3.2009 16.2344L2.05645 19.6677C2.02537 19.7557 2.0064 19.8486 2.0011 19.944C1.99414 20.0667 2.01015 20.1878 2.04637 20.3019C2.09001 20.4403 2.16185 20.5635 2.25404 20.6665C2.34604 20.7696 2.46046 20.8548 2.59313 20.9137C2.70241 20.9624 2.82101 20.9919 2.94374 20.9987Z" fill="black"/>
<path fill-rule="evenodd" clip-rule="evenodd" d="M12 11C12.5523 11 13 11.4477 13 12V12.012C13 12.5643 12.5523 13.012 12 13.012C11.4477 13.012 11 12.5643 11 12.012V12C11 11.4477 11.4477 11 12 11Z" fill="black"/>
<path fill-rule="evenodd" clip-rule="evenodd" d="M8 11C8.55228 11 9 11.4477 9 12V12.012C9 12.5643 8.55228 13.012 8 13.012C7.44772 13.012 7 12.5643 7 12.012V12C7 11.4477 7.44772 11 8 11Z" fill="black"/>
<path fill-rule="evenodd" clip-rule="evenodd" d="M16 11C16.5523 11 17 11.4477 17 12V12.012C17 12.5643 16.5523 13.012 16 13.012C15.4477 13.012 15 12.5643 15 12.012V12C15 11.4477 15.4477 11 16 11Z" fill="black"/>
</svg>
