<svg width="20" height="20" viewBox="0 0 20 20" fill="none" xmlns="http://www.w3.org/2000/svg">
<path fill-rule="evenodd" clip-rule="evenodd" d="M5.00002 4.08337C4.97792 4.08337 4.95672 4.09215 4.94109 4.10778C4.92547 4.12341 4.91669 4.14461 4.91669 4.16671V15.8334C4.91669 15.8555 4.92547 15.8767 4.94109 15.8923C4.95672 15.9079 4.97792 15.9167 5.00002 15.9167H6.75002V4.08337H5.00002ZM8.25002 4.08337V15.9167H14.1667C14.4098 15.9167 14.643 15.8201 14.8149 15.6482C14.9868 15.4763 15.0834 15.2432 15.0834 15V5.00004C15.0834 4.75693 14.9868 4.52377 14.8149 4.35186C14.643 4.17995 14.4098 4.08337 14.1667 4.08337H8.25002ZM8.25002 17.4167H14.1667C14.8076 17.4167 15.4223 17.1621 15.8755 16.7089C16.3287 16.2557 16.5834 15.641 16.5834 15V5.00004C16.5834 4.3591 16.3287 3.74441 15.8755 3.2912C15.4223 2.83799 14.8076 2.58337 14.1667 2.58337H5.00002C4.58009 2.58337 4.17737 2.75019 3.88043 3.04712C3.5835 3.34405 3.41669 3.74678 3.41669 4.16671V15.8334C3.41669 16.2533 3.5835 16.656 3.88043 16.953C4.17737 17.2499 4.5801 17.4167 5.00002 17.4167H6.75002V18.3334C6.75002 18.7476 7.08581 19.0834 7.50002 19.0834C7.91423 19.0834 8.25002 18.7476 8.25002 18.3334V17.4167Z" fill="black"/>
<path fill-rule="evenodd" clip-rule="evenodd" d="M10.0833 6.66663C10.0833 6.25241 10.4191 5.91663 10.8333 5.91663H12.5C12.9142 5.91663 13.25 6.25241 13.25 6.66663C13.25 7.08084 12.9142 7.41663 12.5 7.41663H10.8333C10.4191 7.41663 10.0833 7.08084 10.0833 6.66663Z" fill="black"/>
<path fill-rule="evenodd" clip-rule="evenodd" d="M10.0833 10C10.0833 9.58579 10.4191 9.25 10.8333 9.25H12.5C12.9142 9.25 13.25 9.58579 13.25 10C13.25 10.4142 12.9142 10.75 12.5 10.75H10.8333C10.4191 10.75 10.0833 10.4142 10.0833 10Z" fill="black"/>
</svg>
