<svg width="24" height="24" viewBox="0 0 24 24" fill="none" xmlns="http://www.w3.org/2000/svg">
<path fill-rule="evenodd" clip-rule="evenodd" d="M16.6423 14.6126C16.8563 14.9673 16.7422 15.4283 16.3875 15.6422C15.1392 16.3951 13.5492 16.7497 11.9994 16.7497C10.4496 16.7497 8.8599 16.3951 7.61249 15.6421C7.25788 15.428 7.14397 14.967 7.35805 14.6124C7.57212 14.2578 8.03313 14.1438 8.38774 14.3579C9.34832 14.9378 10.6536 15.2497 11.9994 15.2497C13.3451 15.2497 14.651 14.9379 15.6127 14.3578C15.9674 14.1438 16.4284 14.2579 16.6423 14.6126Z" fill="black"/>
<path fill-rule="evenodd" clip-rule="evenodd" d="M14.4895 4.42961L18.4336 7.38769C19.2103 7.90724 19.7994 8.42047 20.1891 9.01279C20.5965 9.63205 20.75 10.2821 20.75 11V18C20.75 18.0053 20.75 18.0107 20.75 18.0164C20.7503 18.2891 20.751 19.0263 20.1945 19.6756C19.6173 20.3489 18.6067 20.75 17 20.75H7.00002C5.39332 20.75 4.38272 20.3489 3.80558 19.6756C3.24905 19.0263 3.24975 18.2891 3.25001 18.0164C3.25002 18.0107 3.25002 18.0053 3.25002 18V11C3.25002 10.3809 3.37893 9.78723 3.76591 9.17451C4.13651 8.58773 4.71919 8.02314 5.55002 7.40002L9.51057 4.42961C10.1807 3.78538 11.1192 3.5 12 3.5C12.8808 3.5 13.8194 3.78537 14.4895 4.42961ZM12 5C11.3989 5 10.8579 5.20282 10.5304 5.53034L10.4927 5.56804L6.45002 8.60002C5.68086 9.17689 5.26353 9.6123 5.03414 9.97551C4.82112 10.3128 4.75002 10.6191 4.75002 11V18C4.75002 18.2416 4.76258 18.4872 4.94447 18.6994C5.11732 18.9011 5.60672 19.25 7.00002 19.25H17C18.3933 19.25 18.8827 18.9011 19.0556 18.6994C19.2375 18.4872 19.25 18.2416 19.25 18V11C19.25 10.5179 19.1535 10.1679 18.936 9.83721C18.7036 9.48399 18.2987 9.10047 17.584 8.62404L17.5667 8.61249L13.5074 5.56804L13.4697 5.53034C13.1422 5.20281 12.6012 5 12 5Z" fill="black"/>
</svg>
