<svg width="24" height="24" viewBox="0 0 24 24" fill="none" xmlns="http://www.w3.org/2000/svg">
<path fill-rule="evenodd" clip-rule="evenodd" d="M4.75 8C4.75 8.69036 5.30964 9.25 6 9.25L18 9.25C18.6904 9.25 19.25 8.69036 19.25 8L19.25 6C19.25 5.30964 18.6904 4.75 18 4.75L6 4.75C5.30964 4.75 4.75 5.30964 4.75 6L4.75 8ZM6 10.75C4.48122 10.75 3.25 9.51878 3.25 8L3.25 6C3.25 4.48122 4.48122 3.25 6 3.25L18 3.25C19.5188 3.25 20.75 4.48122 20.75 6L20.75 8C20.75 9.51878 19.5188 10.75 18 10.75L6 10.75Z" fill="black"/>
<path fill-rule="evenodd" clip-rule="evenodd" d="M4.75 18C4.75 18.6904 5.30964 19.25 6 19.25L18 19.25C18.6904 19.25 19.25 18.6904 19.25 18L19.25 16C19.25 15.3096 18.6904 14.75 18 14.75L6 14.75C5.30964 14.75 4.75 15.3096 4.75 16L4.75 18ZM6 20.75C4.48122 20.75 3.25 19.5188 3.25 18L3.25 16C3.25 14.4812 4.48122 13.25 6 13.25L18 13.25C19.5188 13.25 20.75 14.4812 20.75 16L20.75 18C20.75 19.5188 19.5188 20.75 18 20.75L6 20.75Z" fill="black"/>
</svg>
