<svg width="32" height="32" viewBox="0 0 32 32" fill="none" xmlns="http://www.w3.org/2000/svg">
<g opacity="0.8">
<path d="M23.7484 23.5057H10.2486C9.97249 23.5057 9.74854 23.2818 9.74854 23.0057V5.50579C9.74854 5.22972 9.97246 5.00577 10.2486 5.00577H23.7484C24.0245 5.00577 24.2485 5.22969 24.2485 5.50579V23.0057C24.2485 23.2818 24.0245 23.5057 23.7484 23.5057ZM10.7482 22.5057H23.2483V6.00558H10.7482V22.5057Z" fill="black"/>
<path d="M8.24856 25.5057C7.97249 25.5057 7.74854 25.2818 7.74854 25.0057V6.88909C7.74854 5.85051 8.59334 5.00571 9.63192 5.00571H10.7485C11.0246 5.00571 11.2486 5.22963 11.2486 5.50573C11.2486 5.78183 11.0246 6.00575 10.7485 6.00575H9.63192C9.14479 6.00575 8.74854 6.402 8.74854 6.88914V25.0057C8.74854 25.2818 8.52461 25.5057 8.24851 25.5057L8.24856 25.5057Z" fill="black"/>
<path d="M20.2486 8.00581H10.2486C9.97249 8.00581 9.74854 7.78189 9.74854 7.50579C9.74854 7.22969 9.97246 7.00577 10.2486 7.00577H20.2486C20.5246 7.00577 20.7486 7.22969 20.7486 7.50579C20.7486 7.78189 20.5247 8.00581 20.2486 8.00581Z" fill="black"/>
<path d="M23.7484 21.5057H10.2486C9.97249 21.5057 9.74854 21.2818 9.74854 21.0057C9.74854 20.7296 9.97246 20.5056 10.2486 20.5056H23.7484C24.0245 20.5056 24.2485 20.7296 24.2485 21.0057C24.2485 21.2818 24.0245 21.5057 23.7484 21.5057Z" fill="black"/>
<path d="M23.4984 27.0056H9.99855C8.75781 27.0056 7.74854 25.9963 7.74854 24.7556C7.74854 23.5148 8.75781 22.5056 9.99855 22.5056H23.4984C23.7745 22.5056 23.9985 22.7295 23.9985 23.0056C23.9985 23.2817 23.7745 23.5056 23.4984 23.5056C22.8092 23.5056 22.2484 24.0663 22.2484 24.7556C22.2484 25.4449 22.8092 26.0056 23.4984 26.0056C23.7745 26.0056 23.9985 26.2295 23.9985 26.5056C23.9985 26.7817 23.7745 27.0057 23.4984 27.0057V27.0056ZM9.99855 23.5056C9.30927 23.5056 8.74854 24.0663 8.74854 24.7556C8.74854 25.4449 9.30927 26.0056 9.99855 26.0056H21.6287C21.3889 25.6479 21.2487 25.2178 21.2487 24.7556C21.2487 24.2934 21.3889 23.8633 21.6287 23.5056H9.99855Z" fill="black"/>
<path d="M19.2483 25.5057H8.24856C7.97249 25.5057 7.74854 25.2818 7.74854 25.0057C7.74854 24.7296 7.97246 24.5056 8.24856 24.5056H19.2483C19.5244 24.5056 19.7484 24.7296 19.7484 25.0057C19.7484 25.2818 19.5244 25.5057 19.2483 25.5057Z" fill="black"/>
<path d="M16.7487 17.8303C16.6206 17.8303 16.4928 17.7813 16.3951 17.6838L15.6153 16.904H14.5126C14.2365 16.904 14.0126 16.6801 14.0126 16.404V15.3013L13.2327 14.5215C13.139 14.4277 13.0863 14.3006 13.0863 14.1679C13.0863 14.0352 13.139 13.9081 13.2327 13.8143L14.0126 13.0345V11.9318C14.0126 11.6557 14.2365 11.4318 14.5126 11.4318H15.6153L16.3951 10.6519C16.5905 10.4568 16.9069 10.4568 17.1023 10.6519L17.8821 11.4318H18.9848C19.2608 11.4318 19.4848 11.6557 19.4848 11.9318V13.0345L20.2646 13.8143C20.3584 13.9081 20.4111 14.0352 20.4111 14.1679C20.4111 14.3006 20.3584 14.4277 20.2646 14.5215L19.4848 15.3013V16.404C19.4848 16.68 19.2609 16.904 18.9848 16.904H17.8821L17.1023 17.6838C17.0046 17.7815 16.8767 17.8303 16.7487 17.8303H16.7487ZM15.0126 15.9042H15.8224C15.9551 15.9042 16.0822 15.9569 16.176 16.0506L16.7487 16.6233L17.3213 16.0506C17.4151 15.9569 17.5422 15.9042 17.6749 15.9042H18.4847V15.0944C18.4847 14.9617 18.5374 14.8345 18.6311 14.7408L19.2038 14.1681L18.6311 13.5955C18.5374 13.5017 18.4847 13.3746 18.4847 13.2419V12.4321H17.6749C17.5422 12.4321 17.4151 12.3794 17.3213 12.2856L16.7487 11.713L16.176 12.2856C16.0822 12.3794 15.9551 12.4321 15.8224 12.4321H15.0126V13.2419C15.0126 13.3746 14.9599 13.5017 14.8662 13.5955L14.2935 14.1681L14.8662 14.7408C14.9599 14.8345 15.0126 14.9617 15.0126 15.0944V15.9042Z" fill="black"/>
</g>
</svg>
