<svg width="32" height="32" viewBox="0 0 32 32" fill="none" xmlns="http://www.w3.org/2000/svg">
<g opacity="0.8">
<path d="M14.3021 24.8336C14.1694 24.8336 14.0422 24.7809 13.9485 24.6872L9.05202 19.7907C8.85685 19.5955 8.85685 19.2789 9.05202 19.0836L13.9462 14.1894C14.1414 13.9942 14.458 13.9942 14.6533 14.1894L19.5498 19.0858C19.745 19.281 19.745 19.5976 19.5498 19.793L14.6556 24.6872C14.5619 24.7811 14.4347 24.8336 14.3021 24.8336H14.3021ZM10.1129 19.4375L14.3022 23.6268L18.4892 19.4398L14.2999 15.2505L10.1129 19.4375Z" fill="black"/>
<path d="M19.1962 19.9394C19.0635 19.9394 18.9364 19.8867 18.8426 19.793L13.9462 14.8965C13.751 14.7013 13.751 14.3848 13.9462 14.1894L18.8426 9.29291C18.9364 9.19916 19.0635 9.14648 19.1962 9.14648C19.3289 9.14648 19.456 9.19916 19.5498 9.29291L24.4462 14.1894C24.6414 14.3845 24.6414 14.7011 24.4462 14.8965L19.5498 19.793C19.4559 19.8867 19.3287 19.9394 19.1962 19.9394V19.9394ZM15.0069 14.5433L19.1962 18.7326L23.3855 14.5433L19.1962 10.354L15.0069 14.5433Z" fill="black"/>
<path d="M9.40565 19.9371C9.27761 19.9371 9.14975 19.8882 9.05207 19.7907L4.1579 14.8965C4.06415 14.8028 4.01147 14.6756 4.01147 14.543C4.01147 14.4103 4.06415 14.2831 4.1579 14.1894L9.05207 9.29522C9.24725 9.10004 9.56384 9.10004 9.75923 9.29522L14.6534 14.1894C14.7472 14.2831 14.7998 14.4103 14.7998 14.543C14.7998 14.6756 14.7472 14.8028 14.6534 14.8965L9.75923 19.7907C9.66155 19.8882 9.53369 19.9371 9.40566 19.9371H9.40565ZM5.21867 14.5428L9.40565 18.7298L13.5926 14.5428L9.40565 10.3559L5.21867 14.5428Z" fill="black"/>
<path d="M14.2998 15.0429C14.1671 15.0429 14.0399 14.9903 13.9462 14.8965L9.05202 10.0023C8.85685 9.80717 8.85685 9.49057 9.05202 9.29519L13.9485 4.39873C14.1437 4.20356 14.4603 4.20356 14.6556 4.39873L19.5498 9.2929C19.6436 9.38666 19.6962 9.5138 19.6962 9.64648C19.6962 9.77915 19.6436 9.9063 19.5498 10L14.6533 14.8965C14.5596 14.9903 14.4325 15.0429 14.2998 15.0429L14.2998 15.0429ZM10.1128 9.64866L14.2998 13.8356L18.4891 9.64633L14.3021 5.45935L10.1128 9.64866Z" fill="black"/>
<path d="M17.7243 24.8345H17.7241L14.3022 24.8336C14.1 24.8336 13.9177 24.7116 13.8404 24.5248C13.7631 24.3381 13.8059 24.1231 13.9488 23.98L18.8429 19.0858C18.9367 18.9921 19.0638 18.9394 19.1965 18.9394H19.1967L22.6186 18.9403C22.821 18.9403 23.0031 19.0623 23.0804 19.2491C23.1578 19.4358 23.1149 19.6509 22.9721 19.7939L18.0779 24.6881C17.984 24.7818 17.8568 24.8345 17.7243 24.8345ZM15.5091 23.8339L17.5174 23.8345L21.4117 19.94L19.4036 19.9395L15.5091 23.8339Z" fill="black"/>
<path d="M24.0928 15.0429C23.9601 15.0429 23.8329 14.9903 23.7392 14.8965L18.8427 10.0001C18.6997 9.85703 18.657 9.64203 18.7343 9.45524C18.8117 9.26846 18.994 9.14667 19.1961 9.14649L22.6181 9.1456H22.6183C22.7509 9.1456 22.8781 9.19828 22.9718 9.29203L27.8683 14.1885C28.0113 14.3315 28.054 14.5465 27.9767 14.7333C27.8994 14.9201 27.717 15.0419 27.5149 15.0421L24.0929 15.0429H24.0928V15.0429ZM20.4033 10.146L24.2999 14.0426L26.3079 14.0421L22.4113 10.1455L20.4033 10.146Z" fill="black"/>
<path d="M22.6185 19.9403H22.6183L19.1964 19.9394C18.994 19.9394 18.8119 19.8175 18.7346 19.6307C18.6572 19.4439 18.7001 19.2289 18.8429 19.0859L23.7394 14.1894C23.8332 14.0956 23.9603 14.043 24.093 14.043H24.0932L27.5151 14.0439C27.7174 14.0439 27.8996 14.1658 27.9769 14.3526C28.0542 14.5394 28.0114 14.7544 27.8685 14.8974L22.9721 19.7939C22.8781 19.8876 22.751 19.9403 22.6185 19.9403V19.9403ZM20.4033 18.9398L22.4113 18.9403L26.3079 15.0437L24.2999 15.0432L20.4033 18.9398Z" fill="black"/>
<path d="M19.1963 10.1465C19.0636 10.1465 18.9365 10.0938 18.8427 10.0001L13.9486 5.1059C13.8055 4.96286 13.7629 4.74787 13.8402 4.56108C13.9175 4.37429 14.0998 4.25251 14.302 4.25233L17.7239 4.25143H17.7241C17.8568 4.25143 17.9839 4.30411 18.0777 4.39786L22.9718 9.29203C23.1149 9.43507 23.1576 9.65007 23.0802 9.83686C23.0029 10.0236 22.8206 10.1454 22.6184 10.1456L19.1965 10.1465H19.1963V10.1465ZM15.509 5.25187L19.4034 9.14618L21.4115 9.14564L17.517 5.2512L15.509 5.25187Z" fill="black"/>
<path d="M14.3021 26.7421C14.0261 26.7421 13.8021 26.5182 13.8021 26.2421V24.3332C13.8021 24.0571 14.0261 23.8332 14.3021 23.8332C14.5782 23.8332 14.8022 24.0571 14.8022 24.3332V26.2419C14.8022 26.5182 14.5784 26.7421 14.3021 26.7421V26.7421Z" fill="black"/>
<path d="M17.7243 26.7421C17.4482 26.7421 17.2242 26.5182 17.2242 26.2421V24.3341C17.2242 24.058 17.4482 23.8341 17.7243 23.8341C18.0003 23.8341 18.2243 24.058 18.2243 24.3341V26.2421C18.2243 26.5182 18.0004 26.7421 17.7243 26.7421Z" fill="black"/>
<path d="M15.7128 27.7424C15.4367 27.7424 15.2128 27.5185 15.2128 27.2424V24.3343C15.2128 24.0583 15.4367 23.8343 15.7128 23.8343C15.9889 23.8343 16.2128 24.0582 16.2128 24.3343V27.2424C16.2128 27.5184 15.9891 27.7424 15.7128 27.7424Z" fill="black"/>
</g>
</svg>
