<svg width="32" height="32" viewBox="0 0 32 32" fill="none" xmlns="http://www.w3.org/2000/svg">
<g opacity="0.8">
<path d="M16.0055 27.7254C15.8729 27.7254 15.7457 27.6728 15.652 27.579L12.5121 24.4392H8.07195C7.79588 24.4392 7.57193 24.2152 7.57193 23.9392V19.4988L4.43209 16.3591C4.23691 16.164 4.23691 15.8474 4.43209 15.652L7.57193 12.5121L7.57175 8.07195C7.57175 7.79588 7.79568 7.57193 8.07177 7.57193H12.5121L15.652 4.43209C15.8472 4.23691 16.1639 4.23691 16.3591 4.43209L19.499 7.57193H23.9393C24.2154 7.57193 24.4394 7.79585 24.4394 8.07195V12.5123L27.5792 15.6522C27.673 15.7459 27.7256 15.873 27.7256 16.0057C27.7256 16.1384 27.673 16.2656 27.5792 16.3593L24.4394 19.4991V23.9395C24.4394 24.2156 24.2154 24.4395 23.9393 24.4395H19.499L16.3591 27.5794C16.2654 27.6728 16.1381 27.7254 16.0056 27.7254H16.0055ZM8.57195 23.4392H12.7195C12.8521 23.4392 12.9793 23.4919 13.073 23.5856L16.0055 26.5183L18.9382 23.5856C19.0319 23.4919 19.1591 23.4392 19.2918 23.4392H23.4391V19.2918C23.4391 19.1592 23.4918 19.032 23.5855 18.9383L26.5182 16.0056L23.5855 13.0729C23.4918 12.9792 23.4391 12.8521 23.4391 12.7194V8.57185H19.2918C19.1591 8.57185 19.0319 8.51917 18.9382 8.42542L16.0055 5.49294L13.0729 8.42561C12.9791 8.51936 12.852 8.57203 12.7193 8.57203H8.57176V12.7196C8.57176 12.8522 8.51909 12.9794 8.42534 13.0731L5.49286 16.0056L8.42552 18.9383C8.51927 19.032 8.57195 19.1592 8.57195 19.2918V23.4392Z" fill="black"/>
<path d="M19.7057 22.7056H12.2058C11.9297 22.7056 11.7057 22.4816 11.7057 22.2055V16.7057C11.7057 16.4296 11.9297 16.2056 12.2058 16.2056H19.7057C19.9817 16.2056 20.2057 16.4296 20.2057 16.7057V22.2055C20.2057 22.4816 19.9818 22.7056 19.7057 22.7056ZM12.7059 21.7056H19.206V17.2055H12.7059V21.7056Z" fill="black"/>
<path d="M19.7057 17.2057H12.2058C12.0731 17.2057 11.946 17.153 11.8522 17.0592L10.3523 15.5593C10.2092 15.4162 10.1665 15.2012 10.2439 15.0144C10.3212 14.8277 10.5035 14.7059 10.7058 14.7059H21.2059C21.4082 14.7059 21.5904 14.8277 21.6679 15.0144C21.7452 15.2012 21.7023 15.4164 21.5595 15.5593L20.0595 17.0592C19.9657 17.153 19.8386 17.2057 19.7059 17.2057H19.7057ZM12.4129 16.2057H19.4986L19.9986 15.7056H11.9127L12.4129 16.2057Z" fill="black"/>
<path d="M20.2058 15.7058H11.7057C11.4296 15.7058 11.2056 15.4819 11.2056 15.2058V14.9558C11.2056 12.3367 13.3365 10.2056 15.9558 10.2056C18.5751 10.2056 20.706 12.3365 20.706 14.9558V15.2058C20.706 15.4818 20.482 15.7058 20.2059 15.7058H20.2058ZM12.214 14.7058H19.6974C19.5683 12.7542 17.9394 11.2058 15.9556 11.2058C13.9718 11.2058 12.343 12.7542 12.2138 14.7058H12.214Z" fill="black"/>
<path d="M15.9557 11.2057C15.6796 11.2057 15.4557 10.9818 15.4557 10.7057V9.20568C15.4557 8.92961 15.6796 8.70566 15.9557 8.70566C16.2318 8.70566 16.4557 8.92959 16.4557 9.20568V10.7057C16.4557 10.9817 16.2318 11.2057 15.9557 11.2057Z" fill="black"/>
<path d="M15.9557 9.70577C15.2664 9.70577 14.7057 9.14504 14.7057 8.45576C14.7057 7.76648 15.2664 7.20575 15.9557 7.20575C16.645 7.20575 17.2057 7.76648 17.2057 8.45576C17.2057 9.14504 16.645 9.70577 15.9557 9.70577ZM15.9557 8.2058C15.8178 8.2058 15.7057 8.31794 15.7057 8.4558C15.7057 8.59366 15.8178 8.7058 15.9557 8.7058C16.0936 8.7058 16.2057 8.59366 16.2057 8.4558C16.2057 8.31794 16.0936 8.2058 15.9557 8.2058Z" fill="black"/>
<path d="M14.4554 21.2057C13.7661 21.2057 13.2054 20.6449 13.2054 19.9557V18.9557C13.2054 18.2664 13.7661 17.7057 14.4554 17.7057C15.1447 17.7057 15.7054 18.2664 15.7054 18.9557V19.9557C15.7054 20.6449 15.1447 21.2057 14.4554 21.2057ZM14.4554 18.7057C14.3175 18.7057 14.2054 18.8178 14.2054 18.9557V19.9557C14.2054 20.0935 14.3175 20.2057 14.4554 20.2057C14.5933 20.2057 14.7054 20.0935 14.7054 19.9557V18.9557C14.7054 18.8178 14.5933 18.7057 14.4554 18.7057Z" fill="black"/>
<path d="M17.4556 21.2057C16.7663 21.2057 16.2056 20.6449 16.2056 19.9557V18.9557C16.2056 18.2664 16.7663 17.7057 17.4556 17.7057C18.1449 17.7057 18.7056 18.2664 18.7056 18.9557V19.9557C18.7056 20.6449 18.1449 21.2057 17.4556 21.2057ZM17.4556 18.7057C17.3177 18.7057 17.2056 18.8178 17.2056 18.9557V19.9557C17.2056 20.0935 17.3177 20.2057 17.4556 20.2057C17.5934 20.2057 17.7056 20.0935 17.7056 19.9557V18.9557C17.7056 18.8178 17.5934 18.7057 17.4556 18.7057Z" fill="black"/>
</g>
</svg>
