<svg width="32" height="32" viewBox="0 0 32 32" fill="none" xmlns="http://www.w3.org/2000/svg">
<g opacity="0.8">
<path d="M7.02242 27.9029C6.89438 27.9029 6.76652 27.854 6.66884 27.7565C6.47367 27.5613 6.47367 27.2447 6.66884 27.0494L8.25815 25.4602C8.49422 25.2242 8.62422 24.9102 8.62422 24.5763C8.62422 24.2424 8.49421 23.9284 8.25815 23.6924C8.02207 23.4563 7.70816 23.3263 7.37421 23.3263C7.04029 23.3263 6.72635 23.4563 6.49028 23.6924L4.89938 25.2835C4.7042 25.4786 4.38761 25.4786 4.19223 25.2835C3.99705 25.0883 3.99687 24.7717 4.19223 24.5763L5.78331 22.9852C6.20831 22.5602 6.7733 22.3263 7.3744 22.3263C7.97531 22.3263 8.54029 22.5604 8.96548 22.9852C9.39048 23.4102 9.62459 23.9752 9.62459 24.5763C9.62459 25.1772 9.39048 25.7424 8.96567 26.1674L7.37636 27.7565C7.27833 27.854 7.15029 27.9029 7.02243 27.9029H7.02242Z" fill="black"/>
<path d="M5.78316 26.6673C5.65512 26.6673 5.52726 26.6184 5.42959 26.5209C5.23441 26.3257 5.23441 26.0091 5.42959 25.8137L8.25797 22.9853C8.45315 22.7901 8.76975 22.7901 8.96513 22.9853C9.16031 23.1805 9.16031 23.4971 8.96513 23.6925L6.13674 26.5209C6.03906 26.6185 5.91103 26.6673 5.78317 26.6673H5.78316Z" fill="black"/>
<path d="M8.91363 23.5861C8.78113 23.5861 8.65345 23.5335 8.55934 23.439C8.45631 23.3358 8.40381 23.1926 8.41524 23.047C8.45577 22.5308 8.4922 22.0033 8.53095 21.4447L8.56184 21.0004C8.57934 20.751 8.77827 20.5527 9.0279 20.5363C9.19004 20.5256 9.34326 20.4558 9.45933 20.3397C9.58665 20.2124 9.65683 20.0429 9.65683 19.8624C9.65683 19.6821 9.58665 19.5126 9.45933 19.3851C9.36772 19.2935 9.25165 19.2307 9.1238 19.2031C8.87862 19.1505 8.7104 18.9242 8.7304 18.6742C8.77576 18.1091 8.82183 17.5969 8.87147 17.1087C8.89736 16.8535 9.11236 16.6592 9.36898 16.6592C9.54773 16.6592 9.71648 16.5891 9.844 16.4616C9.97114 16.3344 10.0411 16.1653 10.041 15.9853C10.0408 15.8051 9.97042 15.6357 9.84293 15.5081C9.75703 15.4223 9.65078 15.3612 9.53596 15.3317C9.28686 15.2676 9.12704 15.0249 9.1665 14.7708C9.29186 13.9626 9.43043 13.2471 9.59043 12.5831C9.65311 12.3228 9.91025 12.158 10.1727 12.2096C10.216 12.2181 10.2604 12.2224 10.3045 12.2224C10.484 12.2224 10.6529 12.1522 10.7802 12.0249C11.0427 11.7624 11.0422 11.3347 10.7792 11.0716C10.7175 11.0099 10.6495 10.9628 10.577 10.9316C10.327 10.8237 10.2093 10.5358 10.312 10.2837C10.5822 9.62066 10.8895 9.03263 11.2254 8.53617C11.3041 8.41975 11.4284 8.34189 11.5675 8.32153C11.7068 8.30135 11.8479 8.34046 11.9566 8.42975C12.0756 8.52725 12.2266 8.581 12.3818 8.581C12.562 8.581 12.7316 8.51082 12.8591 8.38314C13.1086 8.13368 13.1227 7.72993 12.8913 7.46369C12.8002 7.35887 12.7568 7.22083 12.7714 7.0828C12.7861 6.94476 12.8577 6.81887 12.9688 6.73565C13.6068 6.25744 14.3029 5.87046 15.0375 5.58548C15.1727 5.53316 15.3238 5.54191 15.452 5.60959C15.5802 5.67727 15.6725 5.79727 15.7054 5.93852C15.7345 6.06334 15.7968 6.17637 15.8859 6.26548C16.0132 6.3928 16.1829 6.46298 16.3632 6.46298C16.5436 6.46298 16.713 6.3928 16.8405 6.26548C17.0066 6.09923 17.0741 5.8628 17.0209 5.63316C16.9882 5.49191 17.0184 5.34334 17.1037 5.2262C17.1891 5.10888 17.321 5.03441 17.4655 5.02227C18.0919 4.96905 18.7325 4.98352 19.3555 5.06495C19.5034 5.08423 19.635 5.1687 19.7143 5.29513C19.7936 5.42156 19.8123 5.57656 19.7653 5.71816C19.6839 5.96334 19.7462 6.2287 19.928 6.41032C20.0553 6.53765 20.2248 6.60782 20.4053 6.60782C20.5857 6.60782 20.7551 6.53764 20.8826 6.41032C20.9723 6.32068 21.0344 6.20782 21.0625 6.08408C21.0955 5.93818 21.1919 5.81479 21.3255 5.74765C21.4591 5.68032 21.6158 5.67657 21.7524 5.73711C22.3592 6.00532 22.933 6.34159 23.4585 6.73656C23.5694 6.81995 23.6406 6.94567 23.6553 7.08352C23.6699 7.22156 23.6265 7.35942 23.5355 7.46406C23.304 7.73031 23.3183 8.13423 23.5676 8.38369C23.6951 8.51102 23.8644 8.58119 24.0442 8.58119C24.2073 8.58119 24.3646 8.52244 24.4873 8.41583C24.5921 8.32476 24.7299 8.28155 24.8682 8.29601C25.0062 8.31066 25.1319 8.38208 25.2153 8.49316C25.5928 8.99656 25.9172 9.54422 26.1798 10.121C26.2371 10.2472 26.2396 10.3917 26.1864 10.5199C26.1332 10.6481 26.0291 10.7483 25.8991 10.7967C25.808 10.8306 25.7264 10.8831 25.6566 10.953C25.3934 11.2162 25.3934 11.6444 25.6566 11.9074C25.7834 12.0342 25.9525 12.104 26.133 12.104C26.1807 12.104 26.2282 12.099 26.2746 12.0892C26.4101 12.0606 26.5512 12.0892 26.6648 12.1685C26.7784 12.2478 26.8537 12.3707 26.8734 12.5076C26.9601 13.1157 26.9826 13.7328 26.94 14.3421C26.9303 14.4803 26.8637 14.6085 26.7559 14.6957C26.6482 14.783 26.5089 14.8214 26.3718 14.8023C26.341 14.798 26.3098 14.7958 26.2787 14.7958C26.0993 14.7958 25.9301 14.866 25.8025 14.9937C25.5393 15.2569 25.5389 15.6846 25.8014 15.9471C25.8839 16.0297 25.9816 16.0878 26.0918 16.1201C26.2248 16.159 26.3357 16.2515 26.398 16.3753C26.4603 16.4992 26.4684 16.6433 26.4203 16.7733C26.1482 17.5101 25.7775 18.2065 25.3187 18.8431C25.2376 18.9558 25.1133 19.0295 24.9755 19.0469C24.8376 19.0642 24.6991 19.0235 24.5925 18.9345C24.4717 18.8338 24.3183 18.7783 24.1603 18.7783C23.9801 18.7783 23.8109 18.8485 23.6833 18.9761C23.4344 19.2249 23.4194 19.6279 23.6487 19.8935C23.7408 20.0001 23.7837 20.1406 23.7667 20.2804C23.7498 20.4202 23.6746 20.5465 23.5598 20.6281C23.0628 20.9808 22.4758 21.3018 21.8153 21.582C21.6896 21.6352 21.5476 21.6351 21.4223 21.5809C21.2969 21.527 21.199 21.424 21.1514 21.2961C21.1174 21.205 21.0653 21.1238 20.9962 21.0549C20.8689 20.9275 20.6994 20.8574 20.5189 20.8574C20.3385 20.8574 20.1691 20.9276 20.0416 21.0549C19.868 21.2284 19.8021 21.4824 19.8694 21.7175C19.9066 21.8475 19.8896 21.9872 19.8221 22.1043C19.7548 22.2217 19.6427 22.3065 19.5116 22.3399C18.8527 22.507 18.1171 22.6581 17.3253 22.7891C17.193 22.8111 17.0577 22.7788 16.9493 22.6999C16.8409 22.6209 16.7689 22.5017 16.7493 22.3691C16.7278 22.2247 16.6623 22.094 16.5596 21.9913C16.432 21.8636 16.2625 21.7933 16.0825 21.7933C15.9023 21.7933 15.7326 21.8636 15.6052 21.9913C15.458 22.1384 15.3875 22.3424 15.4119 22.5506C15.4275 22.6831 15.3893 22.8163 15.3061 22.9206C15.2228 23.0248 15.1012 23.0915 14.9686 23.1057C14.4421 23.1622 13.9205 23.2131 13.4182 23.2568C13.2857 23.2684 13.1541 23.2268 13.0525 23.1411C12.9509 23.0554 12.8875 22.9327 12.8764 22.8004C12.8669 22.6861 12.8253 22.5197 12.6814 22.3757C12.5537 22.2481 12.3844 22.1777 12.2042 22.1777C12.024 22.1777 11.8544 22.2481 11.7269 22.3757C11.5886 22.5141 11.5173 22.7057 11.5312 22.9013C11.5407 23.0338 11.4971 23.1647 11.41 23.2648C11.323 23.365 11.1994 23.4266 11.0669 23.4357L10.655 23.4643C10.0619 23.5052 9.50175 23.544 8.9514 23.5848C8.93818 23.5856 8.92586 23.5861 8.91354 23.5861L8.91363 23.5861ZM9.53347 21.4449L9.52865 21.514C9.50418 21.8685 9.48043 22.2104 9.45597 22.5456C9.81918 22.5197 10.1895 22.4942 10.5735 22.4676C10.6442 22.1681 10.7967 21.8908 11.019 21.6686C11.3354 21.3522 11.7561 21.1779 12.2035 21.1779C12.6506 21.1779 13.0711 21.3522 13.3877 21.6686C13.5465 21.8274 13.6706 22.0161 13.7542 22.2223C13.9786 22.2014 14.2061 22.1793 14.4352 22.1559C14.4968 21.8291 14.6552 21.5261 14.8971 21.284C15.2136 20.9675 15.6343 20.7933 16.0816 20.7933C16.5287 20.7933 16.9493 20.9675 17.2659 21.2841C17.3977 21.4159 17.5048 21.5659 17.585 21.7295C18.0273 21.65 18.4484 21.564 18.8437 21.4725C18.8589 21.0557 19.0296 20.652 19.3336 20.3479C19.6498 20.0316 20.0703 19.8575 20.518 19.8575C20.9655 19.8575 21.3862 20.0316 21.7025 20.3479C21.7453 20.3907 21.7855 20.4356 21.8232 20.4822C22.1009 20.3498 22.3605 20.2098 22.6001 20.063C22.3664 19.46 22.4957 18.7489 22.9755 18.2691C23.2919 17.9527 23.7125 17.7784 24.1596 17.7784C24.365 17.7784 24.5676 17.8165 24.7569 17.8886C24.9694 17.5541 25.1558 17.2038 25.3146 16.8404C25.2358 16.7848 25.1617 16.7225 25.0931 16.6541C24.4408 16.0017 24.4412 14.9395 25.0942 14.2865C25.3342 14.0465 25.6339 13.8882 25.9594 13.8257C25.9621 13.5813 25.9531 13.3363 25.9326 13.0922C25.5606 13.0484 25.2167 12.8827 24.9485 12.6143C24.2955 11.9613 24.2955 10.8986 24.9485 10.2456C24.988 10.2059 25.0292 10.1686 25.0719 10.1336C24.9499 9.90166 24.8164 9.67611 24.6721 9.45842C24.4739 9.5386 24.2607 9.58074 24.0433 9.58074C23.5964 9.58074 23.176 9.40664 22.8597 9.09023C22.3748 8.60525 22.2481 7.88488 22.4921 7.27775C22.2678 7.129 22.0347 6.99168 21.7949 6.8665C21.7347 6.95596 21.666 7.03989 21.5889 7.11704C21.2728 7.43329 20.8521 7.60741 20.4046 7.60741C19.9571 7.60741 19.5366 7.43331 19.2201 7.11704C18.9174 6.81418 18.748 6.41848 18.7305 6.00755C18.4958 5.99202 18.2614 5.98684 18.0264 5.99255C17.9819 6.35791 17.8171 6.70236 17.5471 6.97257C17.2309 7.28883 16.8103 7.46295 16.3627 7.46295C15.9152 7.46295 15.4945 7.28884 15.1782 6.97257C15.0962 6.89061 15.0232 6.80043 14.9603 6.704C14.6052 6.86811 14.2618 7.06008 13.9332 7.27827C14.1771 7.88521 14.0505 8.60558 13.5655 9.09061C13.2491 9.40704 12.8284 9.58131 12.381 9.58131C12.1859 9.58131 11.993 9.54684 11.8116 9.48131C11.6675 9.72809 11.5298 9.99632 11.3994 10.2841C11.4289 10.3099 11.4577 10.3366 11.4855 10.3647C12.1385 11.0177 12.1391 12.0799 11.4866 12.7324C11.21 13.009 10.8539 13.1768 10.4702 13.2147C10.3786 13.63 10.2941 14.0693 10.2152 14.5424C10.3362 14.614 10.4486 14.7008 10.5491 14.8015C10.8652 15.1177 11.0396 15.5379 11.04 15.9849C11.0403 16.4322 10.8664 16.8529 10.5502 17.1692C10.3455 17.3738 10.0978 17.519 9.82746 17.5959C9.80353 17.8475 9.78014 18.1072 9.75728 18.379C9.9071 18.4572 10.0448 18.5579 10.1655 18.6786C10.4817 18.9949 10.6559 19.4154 10.6559 19.8631C10.6559 20.3106 10.4818 20.7313 10.1655 21.0475C9.98621 21.2272 9.76942 21.3624 9.53336 21.4449L9.53347 21.4449Z" fill="black"/>
<path d="M24.0441 9.58022C23.5961 9.58022 23.1753 9.40629 22.8596 9.09075C22.5443 8.7754 22.3707 8.35539 22.3707 7.90808C22.3707 7.46004 22.5448 7.03933 22.8609 6.72326C23.177 6.40718 23.5977 6.23306 24.0457 6.23306C24.4931 6.23306 24.9133 6.40664 25.2284 6.72198C25.5441 7.03769 25.7179 7.45821 25.7179 7.90643C25.7179 8.35447 25.544 8.77501 25.2284 9.09071C24.9127 9.40642 24.4922 9.58017 24.0441 9.58017L24.0441 9.58022ZM24.0457 7.23306C23.8648 7.23306 23.695 7.30306 23.5679 7.43021C23.4407 7.55735 23.3707 7.72699 23.3707 7.90787C23.3707 8.08805 23.4404 8.25698 23.5668 8.38339C23.6936 8.51018 23.8632 8.58 24.0441 8.58C24.225 8.58 24.3944 8.51018 24.5213 8.38339C24.648 8.25661 24.718 8.08696 24.718 7.90609C24.718 7.72502 24.6482 7.55555 24.5214 7.42879C24.395 7.30272 24.2261 7.23308 24.0457 7.23308L24.0457 7.23306Z" fill="black"/>
<path d="M26.1315 13.1034C25.6842 13.1034 25.2642 12.9298 24.9488 12.6145C24.6331 12.2988 24.4594 11.8783 24.4594 11.4302C24.4594 10.982 24.6333 10.5615 24.9488 10.2457C25.2645 9.93004 25.6852 9.75629 26.1333 9.75629C26.5813 9.75629 27.0018 9.93022 27.3175 10.2457C27.6329 10.5611 27.8065 10.9811 27.8065 11.4284C27.8065 11.8765 27.6325 12.2974 27.3163 12.6134C27.0002 12.9293 26.5793 13.1034 26.1314 13.1034L26.1315 13.1034ZM26.1331 10.7562C25.9522 10.7562 25.7826 10.8261 25.6558 10.953C25.529 11.0798 25.4592 11.2493 25.4592 11.4302C25.4592 11.6113 25.529 11.7807 25.6558 11.9074C25.7822 12.0338 25.9511 12.1034 26.1313 12.1034C26.3122 12.1034 26.482 12.0334 26.6092 11.9061C26.7363 11.779 26.8063 11.6093 26.8063 11.4283C26.8063 11.2481 26.7367 11.0792 26.6102 10.9527C26.4836 10.8261 26.3142 10.7563 26.1331 10.7563L26.1331 10.7562Z" fill="black"/>
<path d="M26.2777 17.1436C25.8296 17.1436 25.4091 16.9697 25.0934 16.6542C24.7781 16.3386 24.6045 15.9186 24.6045 15.4715C24.6045 15.0235 24.7784 14.6026 25.0945 14.2865C25.4102 13.9708 25.8306 13.797 26.2777 13.797C26.7251 13.797 27.1454 13.971 27.461 14.2865C27.777 14.6026 27.9511 15.0233 27.9511 15.4713C27.9511 15.9186 27.7776 16.3387 27.4622 16.654C27.1463 16.9697 26.7258 17.1436 26.2778 17.1436H26.2777ZM26.2777 14.7968C26.0975 14.7968 25.9284 14.8667 25.8014 14.9935C25.6743 15.1206 25.6043 15.2902 25.6043 15.4713C25.6043 15.6515 25.6739 15.8204 25.8004 15.947C25.9271 16.0738 26.0966 16.1436 26.2775 16.1436C26.4584 16.1436 26.6281 16.0738 26.7548 15.9468C26.8813 15.8204 26.9509 15.6517 26.9509 15.4713C26.9509 15.2904 26.8809 15.1206 26.7538 14.9935C26.627 14.8667 26.4579 14.7968 26.2777 14.7968L26.2777 14.7968Z" fill="black"/>
<path d="M24.1598 21.1272C23.7117 21.1272 23.2912 20.9532 22.9753 20.6377C22.6596 20.322 22.4858 19.9015 22.4858 19.4534C22.4858 19.0054 22.6598 18.5847 22.9753 18.269C23.291 17.9533 23.7115 17.7795 24.1596 17.7795C24.6076 17.7795 25.0283 17.9534 25.344 18.269C25.6597 18.5847 25.8335 19.0052 25.8335 19.4534C25.8335 19.9015 25.6596 20.3222 25.344 20.6379C25.0285 20.9532 24.6078 21.1272 24.1598 21.1272ZM24.1598 18.7793C23.9789 18.7793 23.8092 18.8491 23.6826 18.9759C23.5558 19.1027 23.4858 19.2724 23.4858 19.4532C23.4858 19.6341 23.5556 19.8036 23.6824 19.9304C23.8092 20.0574 23.9788 20.1272 24.1597 20.1272C24.3406 20.1272 24.5103 20.0574 24.6369 19.9306C24.7637 19.8038 24.8337 19.6342 24.8337 19.4533C24.8337 19.2724 24.7639 19.1027 24.6371 18.976C24.5101 18.8492 24.3406 18.7794 24.1598 18.7794V18.7793Z" fill="black"/>
<path d="M20.5182 23.2063C20.0701 23.2063 19.6494 23.0323 19.3337 22.7168C19.018 22.4011 18.8442 21.9804 18.8442 21.5323C18.8442 21.0843 19.0182 20.6636 19.3337 20.3479C19.6494 20.0322 20.0699 19.8584 20.5182 19.8584C20.9662 19.8584 21.3869 20.0324 21.7026 20.3479C22.0183 20.6636 22.1921 21.0843 22.1921 21.5323C22.1921 21.9804 22.0181 22.4009 21.7026 22.7168C21.3867 23.0323 20.9662 23.2063 20.5182 23.2063ZM20.518 20.8584C20.3371 20.8584 20.1674 20.9282 20.0407 21.055C19.9139 21.1818 19.8441 21.3513 19.8441 21.5323C19.8441 21.7132 19.9139 21.8829 20.0409 22.0096C20.1676 22.1364 20.3371 22.2062 20.5182 22.2062C20.6991 22.2062 20.8685 22.1364 20.9953 22.0096C21.1223 21.8829 21.1921 21.7132 21.1921 21.5323C21.1921 21.3514 21.1223 21.1818 20.9953 21.055C20.8685 20.9283 20.6991 20.8584 20.518 20.8584H20.518Z" fill="black"/>
<path d="M16.0797 24.1416C15.6324 24.1416 15.2124 23.968 14.8971 23.6527C14.5813 23.3369 14.4076 22.9164 14.4076 22.4682C14.4076 22.0202 14.5815 21.5994 14.8971 21.2837C15.2128 20.968 15.6333 20.7943 16.0815 20.7943C16.5295 20.7943 16.9501 20.9682 17.2658 21.2837C17.5811 21.5991 17.7547 22.0191 17.7547 22.4664C17.7547 22.9145 17.5806 23.3354 17.2645 23.6514C16.9486 23.9675 16.5277 24.1416 16.0797 24.1416L16.0797 24.1416ZM16.0813 21.7942C15.9004 21.7942 15.7308 21.8641 15.6042 21.9908C15.4774 22.1176 15.4074 22.2873 15.4074 22.4681C15.4074 22.649 15.4772 22.8187 15.604 22.9454C15.7304 23.0719 15.8993 23.1415 16.0795 23.1415C16.2604 23.1415 16.4302 23.0715 16.5574 22.9442C16.6845 22.8171 16.7545 22.6472 16.7545 22.4664C16.7545 22.2862 16.6849 22.1172 16.5584 21.9908C16.4318 21.8642 16.2622 21.7942 16.0813 21.7942L16.0813 21.7942Z" fill="black"/>
<path d="M12.2019 24.526C11.7545 24.526 11.3345 24.3525 11.0192 24.0371C10.7033 23.7212 10.5292 23.3007 10.5292 22.8528C10.5292 22.405 10.7031 21.9843 11.0192 21.6684C11.3353 21.3525 11.756 21.1784 12.2036 21.1784C12.6513 21.1784 13.0718 21.3523 13.3879 21.6684C13.7033 21.9837 13.8768 22.4037 13.8768 22.8511C13.8768 23.2991 13.7027 23.72 13.3866 24.0361C13.0706 24.352 12.6499 24.5261 12.2018 24.5261L12.2019 24.526ZM12.2036 22.1784C12.0229 22.1784 11.8533 22.2484 11.7262 22.3755C11.5992 22.5025 11.5292 22.6721 11.5292 22.8528C11.5292 23.0334 11.5992 23.203 11.7262 23.33C11.8526 23.4564 12.0215 23.5261 12.2017 23.5261C12.3826 23.5261 12.5524 23.4561 12.6795 23.3289C12.8067 23.2018 12.8767 23.0321 12.8767 22.8511C12.8767 22.6709 12.807 22.502 12.6806 22.3755C12.5536 22.2484 12.3842 22.1784 12.2036 22.1784L12.2036 22.1784Z" fill="black"/>
<path d="M20.4048 7.60678C19.9568 7.60678 19.5362 7.43285 19.2205 7.11732C18.9048 6.80161 18.7311 6.38091 18.7311 5.93286C18.7311 5.48482 18.905 5.06429 19.2205 4.74859C19.5363 4.43288 19.957 4.25912 20.405 4.25912C20.853 4.25912 21.2738 4.43305 21.5895 4.74859C21.9052 5.0643 22.0789 5.48482 22.0789 5.93286C22.0789 6.38091 21.905 6.80162 21.5895 7.11732C21.2734 7.43285 20.8529 7.60678 20.4048 7.60678V7.60678ZM20.4048 5.25894C20.2239 5.25894 20.0543 5.32876 19.9275 5.45555C19.8007 5.58233 19.7309 5.7518 19.7309 5.93272C19.7309 6.11379 19.8007 6.28325 19.9275 6.41002C20.0543 6.5368 20.2238 6.60663 20.4048 6.60663C20.5857 6.60663 20.7554 6.53681 20.8821 6.41002C21.0089 6.28323 21.0787 6.11377 21.0787 5.93285C21.0787 5.75194 21.0089 5.58232 20.8821 5.45555C20.7552 5.32877 20.5857 5.25894 20.4048 5.25894Z" fill="black"/>
<path d="M16.3627 7.46213C15.9147 7.46213 15.4941 7.2882 15.1784 6.97267C14.8627 6.65695 14.689 6.23644 14.689 5.78821C14.689 5.34017 14.8629 4.91945 15.1784 4.60375C15.4941 4.28804 15.9148 4.11429 16.3629 4.11429C16.8109 4.11429 17.2315 4.28822 17.5472 4.60375C17.8629 4.91946 18.0366 5.34016 18.0366 5.78821C18.0366 6.23625 17.8627 6.65696 17.5472 6.97267C17.2314 7.2882 16.8109 7.46213 16.3627 7.46213V7.46213ZM16.3627 5.11429C16.1818 5.11429 16.0122 5.18411 15.8854 5.31107C15.7586 5.43786 15.6888 5.60733 15.6888 5.78824C15.6888 5.96913 15.7586 6.13878 15.8854 6.26554C16.0122 6.39233 16.1817 6.46233 16.3626 6.46233C16.5435 6.46233 16.7131 6.39251 16.8399 6.26554C16.9667 6.13876 17.0365 5.96929 17.0365 5.78824C17.0365 5.60717 16.9667 5.4377 16.8399 5.31094C16.7133 5.18415 16.5438 5.11433 16.3627 5.11433V5.11429Z" fill="black"/>
<path d="M12.3816 9.5802C11.9335 9.5802 11.5128 9.40627 11.1971 9.09074C10.8814 8.77503 10.7076 8.35451 10.7076 7.90646C10.7076 7.45843 10.8816 7.03771 11.1971 6.72201C11.5125 6.40665 11.9325 6.23309 12.3798 6.23309C12.8278 6.23309 13.2487 6.4072 13.5648 6.72329C13.8809 7.03937 14.0548 7.46006 14.0548 7.90811C14.0548 8.35543 13.8812 8.77545 13.5659 9.09079C13.2503 9.4065 12.8297 9.58025 12.3816 9.58025L12.3816 9.5802ZM12.3798 7.23305C12.1996 7.23305 12.0307 7.30269 11.9043 7.42912C11.7775 7.5559 11.7076 7.72537 11.7076 7.90642C11.7076 8.08732 11.7775 8.25678 11.9043 8.38359C12.031 8.51037 12.2005 8.5802 12.3816 8.5802C12.5625 8.5802 12.7321 8.51038 12.8587 8.38359C12.9852 8.25716 13.0548 8.08823 13.0548 7.90807C13.0548 7.72718 12.9848 7.55735 12.8577 7.43022C12.7305 7.30308 12.5609 7.23308 12.3798 7.23308L12.3798 7.23305Z" fill="black"/>
<path d="M10.3028 13.2223C9.85497 13.2223 9.43425 13.0483 9.11837 12.7322C8.80247 12.4162 8.62854 11.9955 8.62854 11.5478C8.62854 11.1001 8.80247 10.6796 9.11837 10.3635C9.43372 10.0482 9.85373 9.8746 10.301 9.8746C10.7491 9.8746 11.17 10.0487 11.4859 10.3648C11.8019 10.6809 11.9759 11.1018 11.9759 11.5496C11.9759 11.9969 11.8023 12.417 11.487 12.7323C11.1713 13.0482 10.7507 13.2223 10.3029 13.2223L10.3028 13.2223ZM10.3012 10.8746C10.121 10.8746 9.95211 10.9442 9.8257 11.0707C9.69856 11.1976 9.62873 11.3671 9.62873 11.5478C9.62873 11.7286 9.69873 11.8982 9.82588 12.0253C9.95284 12.1523 10.1225 12.2223 10.3032 12.2223C10.4837 12.2223 10.6532 12.1523 10.7803 12.0253C10.9068 11.8989 10.9764 11.73 10.9764 11.5498C10.9764 11.3689 10.9064 11.1991 10.7793 11.072C10.6518 10.9446 10.4821 10.8746 10.3012 10.8746L10.3012 10.8746Z" fill="black"/>
<path d="M9.36667 17.6584C8.91863 17.6584 8.49791 17.4845 8.18221 17.1689C7.8665 16.8532 7.69275 16.4327 7.69275 15.9847C7.69275 15.5366 7.86668 15.1159 8.18221 14.8002C8.49757 14.4848 8.91757 14.3113 9.36489 14.3113C9.81292 14.3113 10.2338 14.4854 10.5497 14.8013C10.8658 15.1174 11.0397 15.5383 11.0397 15.9863C11.0397 16.4336 10.8661 16.8536 10.5508 17.169C10.2355 17.4847 9.81471 17.6584 9.36671 17.6584L9.36667 17.6584ZM9.36506 15.3112C9.18488 15.3112 9.01596 15.3809 8.88954 15.5073C8.76276 15.6341 8.69293 15.8036 8.69293 15.9846C8.69293 16.1655 8.76275 16.3351 8.88954 16.4618C9.01633 16.5886 9.18579 16.6584 9.36684 16.6584C9.54791 16.6584 9.71738 16.5886 9.84415 16.4618C9.97058 16.3353 10.0402 16.1664 10.0402 15.9863C10.0402 15.8054 9.97022 15.6355 9.84308 15.5084C9.71558 15.3813 9.54593 15.3113 9.36504 15.3113L9.36506 15.3112Z" fill="black"/>
<path d="M8.98215 21.5363C8.53411 21.5363 8.11339 21.3624 7.79769 21.0469C7.48198 20.7311 7.30823 20.3104 7.30823 19.8626C7.30823 19.4145 7.48216 18.994 7.79769 18.6783C8.1134 18.3626 8.53392 18.1888 8.98215 18.1888C9.43018 18.1888 9.85072 18.3628 10.1664 18.6783C10.4821 18.994 10.6559 19.4147 10.6559 19.8628C10.6559 20.3108 10.482 20.7315 10.1664 21.0472C9.85089 21.3626 9.43033 21.5363 8.98215 21.5363V21.5363ZM8.98215 19.1887C8.80108 19.1887 8.63161 19.2585 8.50484 19.3853C8.37806 19.5121 8.30824 19.6815 8.30824 19.8626C8.30824 20.0435 8.37806 20.2131 8.50484 20.3399C8.63163 20.4667 8.8011 20.5365 8.98201 20.5365C9.16292 20.5365 9.33255 20.4667 9.45931 20.3399C9.5861 20.2131 9.65592 20.0436 9.65592 19.8626C9.65592 19.6817 9.5861 19.512 9.45931 19.3853C9.33271 19.2585 9.16324 19.1887 8.98215 19.1887Z" fill="black"/>
</g>
</svg>
