<svg width="32" height="32" viewBox="0 0 32 32" fill="none" xmlns="http://www.w3.org/2000/svg">
<g opacity="0.8">
<path d="M16.3117 18.9093H16.3108C16.0347 18.9087 15.8112 18.6846 15.8117 18.4084C15.8153 16.293 17.1012 14.9975 18.4626 13.6257C19.4187 12.6624 20.4074 11.6663 21.1053 10.2757C21.2292 10.029 21.5298 9.92932 21.7764 10.0531C22.0232 10.177 22.123 10.4774 21.999 10.7242C21.2298 12.2574 20.1367 13.3586 19.1724 14.3301C17.8551 15.6572 16.8146 16.7056 16.8117 18.4099C16.8114 18.6859 16.5876 18.9092 16.3117 18.9092L16.3117 18.9093Z" fill="black"/>
<path d="M16.2925 18.9093C16.0168 18.9093 15.793 18.6861 15.7925 18.4102C15.7896 16.7059 14.7491 15.6577 13.4317 14.3303C12.4674 13.3587 11.3744 12.2575 10.6049 10.7244C10.481 10.4777 10.5808 10.1771 10.8276 10.0534C11.0744 9.92943 11.375 10.0293 11.4987 10.276C12.1964 11.6666 13.1851 12.6626 14.1414 13.626C15.5028 14.9976 16.7887 16.2934 16.7923 18.4087C16.7928 18.6847 16.5692 18.909 16.2932 18.9095C16.293 18.9094 16.2928 18.9094 16.2925 18.9094L16.2925 18.9093Z" fill="black"/>
<path d="M21.4998 21.4999H10.9997C10.7236 21.4999 10.4997 21.276 10.4997 20.9999V10.4997C10.4997 10.2237 10.7236 9.99973 10.9997 9.99973H21.4998C21.7759 9.99973 21.9999 10.2237 21.9999 10.4997V20.9999C21.9999 21.2759 21.7759 21.4999 21.4998 21.4999ZM11.4998 20.4999H20.9997V11H11.4998V20.4999Z" fill="black"/>
<path d="M19.9999 24H12.5C12.2239 24 12 23.7761 12 23.5V21C12 20.7239 12.2239 20.4999 12.5 20.4999H19.9999C20.276 20.4999 20.4999 20.7239 20.4999 21V23.5C20.4999 23.7761 20.276 24 19.9999 24ZM13.0001 23H19.5003V21.5H13.0001V23Z" fill="black"/>
<path d="M19.9999 10.9998H12.5C12.2239 10.9998 12 10.7758 12 10.4997V7.99972C12 7.72364 12.2239 7.49969 12.5 7.49969H19.9999C20.276 7.49969 20.4999 7.72362 20.4999 7.99972V10.4997C20.4999 10.7758 20.276 10.9998 19.9999 10.9998ZM13.0001 9.99976H19.5003V8.49979H13.0001V9.99976Z" fill="black"/>
<path d="M19.0002 8.50011H13.5003C13.2242 8.50011 13.0002 8.27619 13.0002 8.00009V7.2501C13.0002 5.45815 14.4583 4.00009 16.2503 4.00009C18.0422 4.00009 19.5003 5.45815 19.5003 7.2501V8.00009C19.5003 8.27616 19.2763 8.50011 19.0002 8.50011H19.0002ZM13.9999 7.50011H18.4999V7.25011C18.4999 6.00938 17.4907 5.0001 16.2499 5.0001C15.0092 5.0001 13.9999 6.00938 13.9999 7.25011V7.50011Z" fill="black"/>
<path d="M16.25 27.4999C14.4581 27.4999 13 26.0418 13 24.2499V23.4999C13 23.2238 13.2239 22.9999 13.5 22.9999H18.9999C19.276 22.9999 19.4999 23.2238 19.4999 23.4999V24.2499C19.4999 26.0418 18.0419 27.4999 16.2499 27.4999H16.25ZM14 23.9999V24.2499C14 25.4907 15.0093 26.4999 16.25 26.4999C17.4907 26.4999 18.5 25.4907 18.5 24.2499V23.9999H14Z" fill="black"/>
<path d="M23.0001 21.4999H21.5001C21.2241 21.4999 21.0001 21.276 21.0001 20.9999C21.0001 20.7238 21.224 20.4998 21.5001 20.4998H23.0001C23.2762 20.4998 23.5001 20.7238 23.5001 20.9999C23.5001 21.276 23.2762 21.4999 23.0001 21.4999Z" fill="black"/>
<path d="M11.0001 21.4999H9.50015C9.22407 21.4999 9.00012 21.276 9.00012 20.9999C9.00012 20.7238 9.22405 20.4998 9.50015 20.4998H11.0001C11.2762 20.4998 11.5001 20.7238 11.5001 20.9999C11.5001 21.276 11.2762 21.4999 11.0001 21.4999V21.4999Z" fill="black"/>
<path d="M23.0001 10.9998H21.5001C21.2241 10.9998 21.0001 10.7758 21.0001 10.4997C21.0001 10.2237 21.224 9.99973 21.5001 9.99973H23.0001C23.2762 9.99973 23.5001 10.2237 23.5001 10.4997C23.5001 10.7758 23.2762 10.9998 23.0001 10.9998Z" fill="black"/>
<path d="M11.0001 10.9998H9.50015C9.22407 10.9998 9.00012 10.7758 9.00012 10.4997C9.00012 10.2237 9.22405 9.99973 9.50015 9.99973H11.0001C11.2762 9.99973 11.5001 10.2237 11.5001 10.4997C11.5001 10.7758 11.2762 10.9998 11.0001 10.9998V10.9998Z" fill="black"/>
<path d="M6.50004 21.6C5.67288 21.6 5.00006 20.9271 5.00006 20.1C5.00006 19.2729 5.67293 18.6 6.50004 18.6C7.32715 18.6 8.00002 19.2729 8.00002 20.1C8.00002 20.9271 7.32715 21.6 6.50004 21.6V21.6ZM6.50004 19.6C6.22433 19.6 6.00002 19.8243 6.00002 20.1C6.00002 20.3758 6.2243 20.6 6.50004 20.6C6.77578 20.6 7.00006 20.3758 7.00006 20.1C7.00006 19.8243 6.77578 19.6 6.50004 19.6Z" fill="black"/>
<path d="M25.2502 8.5001C24.2853 8.5001 23.5002 7.71509 23.5002 6.75011C23.5002 5.78513 24.2853 5.00012 25.2502 5.00012C26.2152 5.00012 27.0002 5.78513 27.0002 6.75011C27.0002 7.71509 26.2152 8.5001 25.2502 8.5001ZM25.2502 6.00008C24.8367 6.00008 24.5002 6.33651 24.5002 6.75006C24.5002 7.16362 24.8367 7.50005 25.2502 7.50005C25.6638 7.50005 26.0002 7.16362 26.0002 6.75006C26.0002 6.33651 25.6638 6.00008 25.2502 6.00008V6.00008Z" fill="black"/>
<path d="M21.4998 18.917H10.9997C10.7236 18.917 10.4997 18.6931 10.4997 18.417C10.4997 16.3 11.8016 15.0054 13.1801 13.6348C14.1511 12.6691 15.1552 11.6705 15.8549 10.2761C15.9397 10.107 16.1126 10.0004 16.3019 10.0004H16.302C16.4913 10.0004 16.6642 10.1072 16.749 10.2764C17.4304 11.6363 18.406 12.6361 19.3492 13.6029C20.7122 14.9997 21.9997 16.3191 21.9997 18.4171C21.9997 18.6931 21.7758 18.9171 21.4997 18.9171L21.4998 18.917ZM11.5318 17.917H20.9668C20.7748 16.4952 19.7741 15.4697 18.6336 14.3008C17.8588 13.5067 16.9997 12.6262 16.3016 11.5154C15.5806 12.6579 14.6891 13.5446 13.8855 14.3436C12.6882 15.5342 11.7171 16.4999 11.532 17.917H11.5318Z" fill="black"/>
<path d="M25.9999 26.9998C25.1728 26.9998 24.4999 26.3269 24.4999 25.4998C24.4999 24.6727 25.1728 23.9998 25.9999 23.9998C26.827 23.9998 27.4999 24.6727 27.4999 25.4998C27.4999 26.3269 26.827 26.9998 25.9999 26.9998ZM25.9999 24.9998C25.7242 24.9998 25.4999 25.2241 25.4999 25.4998C25.4999 25.7755 25.7242 25.9998 25.9999 25.9998C26.2757 25.9998 26.4999 25.7755 26.4999 25.4998C26.4999 25.2241 26.2757 24.9998 25.9999 24.9998Z" fill="black"/>
<path d="M21.0002 8.50011H11.5003C11.2242 8.50011 11.0002 8.27618 11.0002 8.00008C11.0002 7.72399 11.2242 7.50006 11.5003 7.50006H21.0002C21.2762 7.50006 21.5002 7.72399 21.5002 8.00008C21.5002 8.27618 21.2762 8.50011 21.0002 8.50011Z" fill="black"/>
<path d="M21.0002 24H11.5003C11.2242 24 11.0002 23.7761 11.0002 23.5C11.0002 23.2239 11.2242 22.9999 11.5003 22.9999H21.0002C21.2762 22.9999 21.5002 23.2239 21.5002 23.5C21.5002 23.7761 21.2762 24 21.0002 24Z" fill="black"/>
<path d="M16.3021 18.5001C16.026 18.5001 15.8021 18.2762 15.8021 18.0001V10.5002C15.8021 10.2241 16.026 10.0002 16.3021 10.0002C16.5782 10.0002 16.8021 10.2241 16.8021 10.5002V18.0001C16.8021 18.2762 16.5782 18.5001 16.3021 18.5001Z" fill="black"/>
</g>
</svg>
