<svg width="32" height="32" viewBox="0 0 32 32" fill="none" xmlns="http://www.w3.org/2000/svg">
<g opacity="0.8">
<path d="M10.749 22.7516C10.473 22.7516 10.249 22.5276 10.249 22.2515V4.75164C10.249 4.47557 10.473 4.25162 10.749 4.25162C11.0251 4.25162 11.2491 4.47554 11.2491 4.75164V22.2515C11.2491 22.5276 11.0251 22.7516 10.749 22.7516Z" fill="black"/>
<path d="M23.2486 8.75153C21.3188 8.75153 19.7487 7.18134 19.7487 5.25156C19.7487 5.05906 19.7653 4.86299 19.7979 4.6687C19.8385 4.42799 20.0469 4.25156 20.291 4.25156H22.8486C23.6206 4.25156 24.2486 4.87958 24.2486 5.65156V8.20923C24.2486 8.45351 24.0722 8.6619 23.8313 8.70225C23.637 8.73493 23.441 8.75154 23.2486 8.75154L23.2486 8.75153ZM20.7486 5.25156C20.7486 6.63012 21.87 7.75158 23.2486 7.75158V5.65156C23.2486 5.43102 23.0692 5.25156 22.8486 5.25156H20.7486Z" fill="black"/>
<path d="M22.8486 25.7513H20.291C20.0469 25.7513 19.8383 25.5749 19.7979 25.3342C19.7653 25.1399 19.7487 24.9438 19.7487 24.7513C19.7487 22.8215 21.3189 21.2513 23.2486 21.2513C23.4411 21.2513 23.6372 21.268 23.8315 21.3006C24.0722 21.3412 24.2486 21.5496 24.2486 21.7937V24.3513C24.2486 25.1233 23.6206 25.7513 22.8486 25.7513L22.8486 25.7513ZM20.7486 24.7513H22.8486C23.0692 24.7513 23.2486 24.5719 23.2486 24.3513V22.2513C21.8701 22.2513 20.7486 23.3727 20.7486 24.7513Z" fill="black"/>
<path d="M22.8487 25.7513H14.7485C14.4725 25.7513 14.2485 25.5274 14.2485 25.2513V24.7513H12.7485V25.2513C12.7485 25.5274 12.5246 25.7513 12.2485 25.7513H9.14854C8.37656 25.7513 7.74854 25.1233 7.74854 24.3513V5.65143C7.74854 4.87946 8.37656 4.25143 9.14854 4.25143H22.8487C23.6206 4.25143 24.2487 4.87946 24.2487 5.65143V24.3513C24.2487 25.1233 23.6206 25.7513 22.8487 25.7513V25.7513ZM15.2487 24.7513H22.8487C23.0692 24.7513 23.2487 24.5719 23.2487 24.3513V5.65143C23.2487 5.4309 23.0692 5.25143 22.8487 5.25143H9.14854C8.928 5.25143 8.74854 5.4309 8.74854 5.65143V24.3513C8.74854 24.5719 8.928 24.7513 9.14854 24.7513H11.7485V24.2513C11.7485 23.9752 11.9725 23.7513 12.2486 23.7513H14.7486C15.0247 23.7513 15.2486 23.9752 15.2486 24.2513L15.2487 24.7513Z" fill="black"/>
<path d="M13.4988 27.7513C12.5338 27.7513 11.7488 26.9663 11.7488 26.0013V24.2513C11.7488 23.9753 11.9727 23.7513 12.2488 23.7513H14.7488C15.0249 23.7513 15.2488 23.9752 15.2488 24.2513V26.0013C15.2488 26.9663 14.4638 27.7513 13.4989 27.7513H13.4988ZM12.7488 24.7513V26.0013C12.7488 26.4149 13.0852 26.7513 13.4988 26.7513C13.9123 26.7513 14.2488 26.4149 14.2488 26.0013V24.7513H12.7488Z" fill="black"/>
<path d="M18.2489 8.25145H10.749C10.473 8.25145 10.249 8.02752 10.249 7.75143C10.249 7.47533 10.473 7.2514 10.749 7.2514H18.2489C18.525 7.2514 18.749 7.47533 18.749 7.75143C18.749 8.02752 18.525 8.25145 18.2489 8.25145Z" fill="black"/>
<path d="M16.749 19.5758C16.621 19.5758 16.4932 19.5269 16.3955 19.4294L15.6156 18.6495H14.513C14.2369 18.6495 14.0129 18.4256 14.0129 18.1495V17.0468L13.2331 16.267C13.1393 16.1732 13.0867 16.0461 13.0867 15.9134C13.0867 15.7807 13.1393 15.6536 13.2331 15.5598L14.0129 14.78V13.6773C14.0129 13.4012 14.2369 13.1773 14.513 13.1773H15.6156L16.3955 12.3975C16.5908 12.2023 16.9072 12.2023 17.1026 12.3975L17.8825 13.1773H18.9851C19.2612 13.1773 19.4852 13.4012 19.4852 13.6773V14.78L20.265 15.5598C20.3588 15.6536 20.4114 15.7807 20.4114 15.9134C20.4114 16.0461 20.3588 16.1732 20.265 16.267L19.4852 17.0468V18.1495C19.4852 18.4256 19.2612 18.6495 18.9851 18.6495H17.8825L17.1026 19.4294C17.005 19.527 16.8771 19.5758 16.7491 19.5758H16.749ZM15.013 17.6497H15.8228C15.9555 17.6497 16.0826 17.7024 16.1764 17.7961L16.749 18.3688L17.3217 17.7961C17.4154 17.7024 17.5426 17.6497 17.6753 17.6497H18.4851V16.8399C18.4851 16.7072 18.5378 16.58 18.6315 16.4863L19.2042 15.9136L18.6315 15.341C18.5378 15.2472 18.4851 15.1201 18.4851 14.9874V14.1776H17.6753C17.5426 14.1776 17.4154 14.1249 17.3217 14.0311L16.749 13.4585L16.1764 14.0311C16.0826 14.1249 15.9555 14.1776 15.8228 14.1776H15.013V14.9874C15.013 15.1201 14.9603 15.2472 14.8665 15.341L14.2939 15.9136L14.8665 16.4863C14.9603 16.58 15.013 16.7072 15.013 16.8399V17.6497Z" fill="black"/>
<path d="M16.749 12.7515C15.9218 12.7515 15.249 12.0787 15.249 11.2516C15.249 10.4245 15.9219 9.75159 16.749 9.75159C17.5761 9.75159 18.249 10.4245 18.249 11.2516C18.249 12.0787 17.5761 12.7515 16.749 12.7515V12.7515ZM16.749 10.7515C16.4733 10.7515 16.249 10.9758 16.249 11.2516C16.249 11.5273 16.4733 11.7516 16.749 11.7516C17.0247 11.7516 17.249 11.5273 17.249 11.2516C17.249 10.9758 17.0247 10.7515 16.749 10.7515Z" fill="black"/>
<path d="M16.749 22.2514C15.9218 22.2514 15.249 21.5786 15.249 20.7515C15.249 19.9244 15.9219 19.2515 16.749 19.2515C17.5761 19.2515 18.249 19.9244 18.249 20.7515C18.249 21.5786 17.5761 22.2514 16.749 22.2514ZM16.749 20.2514C16.4733 20.2514 16.249 20.4757 16.249 20.7515C16.249 21.0272 16.4733 21.2515 16.749 21.2515C17.0247 21.2515 17.249 21.0272 17.249 20.7515C17.249 20.4757 17.0247 20.2514 16.749 20.2514Z" fill="black"/>
</g>
</svg>
