<svg width="24" height="24" viewBox="0 0 24 24" fill="none" xmlns="http://www.w3.org/2000/svg">
<g clip-path="url(#clip0_206_165)">
<path fill-rule="evenodd" clip-rule="evenodd" d="M5.00002 4.85002C4.69503 4.85002 4.40252 4.97118 4.18685 5.18685C3.97652 5.39718 3.85608 5.6806 3.85025 5.97742C4.08112 9.66018 5.64821 13.1325 8.25789 15.7422C10.8676 18.3518 14.3399 19.9189 18.0226 20.1498C18.3194 20.144 18.6029 20.0235 18.8132 19.8132C19.0289 19.5975 19.15 19.305 19.15 19V15.5755L15.3565 14.0581L14.2289 15.9373C14.0013 16.3167 13.5208 16.458 13.1241 16.2624C10.7847 15.1086 8.89141 13.2153 7.73769 10.876C7.54203 10.4792 7.68337 9.99875 8.0627 9.77116L9.94197 8.64359L8.42455 4.85002H5.00002ZM2.98477 3.98477C3.51925 3.45029 4.24416 3.15002 5.00002 3.15002H9.00002C9.34759 3.15002 9.66015 3.36163 9.78923 3.68434L11.7892 8.68434C11.9442 9.0717 11.7951 9.51425 11.4373 9.72889L9.63445 10.8106C10.5025 12.2749 11.7252 13.4976 13.1894 14.3656L14.2712 12.5627C14.4858 12.205 14.9283 12.0559 15.3157 12.2108L20.3157 14.2108C20.6384 14.3399 20.85 14.6525 20.85 15V19C20.85 19.7559 20.5498 20.4808 20.0153 21.0153C19.4808 21.5498 18.7559 21.85 18 21.85C17.9828 21.85 17.9656 21.8495 17.9485 21.8485C13.8405 21.5988 9.96594 19.8544 7.05581 16.9442C4.14569 14.0341 2.40123 10.1595 2.15159 6.05158C2.15055 6.03442 2.15002 6.01722 2.15002 6.00002C2.15002 5.24416 2.45029 4.51925 2.98477 3.98477Z" fill="black"/>
</g>
<defs>
<clipPath id="clip0_206_165">
<rect width="24" height="24" fill="white"/>
</clipPath>
</defs>
</svg>
