<svg width="24" height="24" viewBox="0 0 24 24" fill="none" xmlns="http://www.w3.org/2000/svg">
<path fill-rule="evenodd" clip-rule="evenodd" d="M10 3.85002C6.60347 3.85002 3.85002 6.60347 3.85002 10C3.85002 13.3966 6.60347 16.15 10 16.15C13.3966 16.15 16.15 13.3966 16.15 10C16.15 6.60347 13.3966 3.85002 10 3.85002ZM2.15002 10C2.15002 5.66459 5.66459 2.15002 10 2.15002C14.3355 2.15002 17.85 5.66459 17.85 10C17.85 14.3355 14.3355 17.85 10 17.85C5.66459 17.85 2.15002 14.3355 2.15002 10Z" fill="black"/>
<path fill-rule="evenodd" clip-rule="evenodd" d="M17.399 17.399C17.7309 17.067 18.2691 17.067 18.6011 17.399L21.6011 20.399C21.933 20.7309 21.933 21.2691 21.6011 21.6011C21.2691 21.933 20.7309 21.933 20.399 21.6011L17.399 18.6011C17.067 18.2691 17.067 17.7309 17.399 17.399Z" fill="black"/>
</svg>
