<svg width="24" height="24" viewBox="0 0 24 24" fill="none" xmlns="http://www.w3.org/2000/svg">
<path fill-rule="evenodd" clip-rule="evenodd" d="M6 18C5.44772 18 5 18.4477 5 19C5 19.5523 5.44772 20 6 20C6.55228 20 7 19.5523 7 19C7 18.4477 6.55228 18 6 18ZM3 19C3 17.3431 4.34315 16 6 16C7.65685 16 9 17.3431 9 19C9 20.6569 7.65685 22 6 22C4.34315 22 3 20.6569 3 19Z" fill="black"/>
<path fill-rule="evenodd" clip-rule="evenodd" d="M17 18C16.4477 18 16 18.4477 16 19C16 19.5523 16.4477 20 17 20C17.5523 20 18 19.5523 18 19C18 18.4477 17.5523 18 17 18ZM14 19C14 17.3431 15.3431 16 17 16C18.6569 16 20 17.3431 20 19C20 20.6569 18.6569 22 17 22C15.3431 22 14 20.6569 14 19Z" fill="black"/>
<path fill-rule="evenodd" clip-rule="evenodd" d="M3 3C3 2.44772 3.44772 2 4 2H6C6.55228 2 7 2.44772 7 3V16H17C17.5523 16 18 16.4477 18 17C18 17.5523 17.5523 18 17 18H6C5.44772 18 5 17.5523 5 17V4H4C3.44772 4 3 3.55228 3 3Z" fill="black"/>
<path fill-rule="evenodd" clip-rule="evenodd" d="M5.00258 4.9288C5.04193 4.37791 5.52041 3.96324 6.07129 4.00258L20.0713 5.00258C20.3481 5.02235 20.6042 5.15622 20.7784 5.37219C20.9526 5.58815 21.0292 5.86678 20.99 6.14146L19.99 13.1415C19.9196 13.6341 19.4977 14 19 14H6.00004C5.44776 14 5.00004 13.5523 5.00004 13C5.00004 12.4478 5.44776 12 6.00004 12H18.1327L18.8583 6.92104L5.9288 5.9975C5.37791 5.95815 4.96324 5.47968 5.00258 4.9288Z" fill="black"/>
</svg>
