<svg width="24" height="24" viewBox="0 0 24 24" fill="none" xmlns="http://www.w3.org/2000/svg">
<path fill-rule="evenodd" clip-rule="evenodd" d="M7.25 7C7.25 4.37665 9.37665 2.25 12 2.25C14.6233 2.25 16.75 4.37664 16.75 7C16.75 9.62336 14.6233 11.75 12 11.75C9.37665 11.75 7.25 9.62335 7.25 7ZM12 3.75C10.2051 3.75 8.75 5.20507 8.75 7C8.75 8.79493 10.2051 10.25 12 10.25C13.7949 10.25 15.25 8.79492 15.25 7C15.25 5.20508 13.7949 3.75 12 3.75Z" fill="black"/>
<path fill-rule="evenodd" clip-rule="evenodd" d="M10 15.75C9.13803 15.75 8.3114 16.0924 7.70192 16.7019L7.70189 16.7019C7.09241 17.3114 6.75 18.138 6.75 19V21C6.75 21.4142 6.41421 21.75 6 21.75C5.58579 21.75 5.25 21.4142 5.25 21V19C5.25 17.7402 5.75045 16.532 6.64125 15.6413L7.17157 16.1716L6.64125 15.6413C7.53207 14.7504 8.74023 14.25 10 14.25H14C15.2598 14.25 16.4679 14.7504 17.3587 15.6412C17.3587 15.6413 17.3587 15.6413 17.3588 15.6413M17.3588 15.6413C18.2496 16.5321 18.75 17.7402 18.75 19V21C18.75 21.4142 18.4142 21.75 18 21.75C17.5858 21.75 17.25 21.4142 17.25 21V19C17.25 18.138 16.9076 17.3114 16.2981 16.702L16.298 16.7019C15.6886 16.0924 14.862 15.75 14 15.75H10" fill="black"/>
</svg>
